<mxfile host="app.diagrams.net" agent="Mozilla/5.0 (X11; Linux x86_64) AppleWebKit/537.36 (KHTML, like Gecko) Chrome/129.0.0.0 Safari/537.36" modified="2024-10-06T11:21:19.426Z" version="24.4.0" etag="ixS6Ovio4AiLy7cB9ZHY" type="device">
  <diagram name="Page-1" id="-H_mtQnk-PTXWXPvYvuk">
    <mxGraphModel dx="1092" dy="743" grid="1" gridSize="10" guides="1" tooltips="1" connect="1" arrows="1" fold="1" page="1" pageScale="1" pageWidth="1169" pageHeight="827" math="0" shadow="0">
      <root>
        <mxCell id="0" />
        <mxCell id="1" parent="0" />
        <mxCell id="zA23MoTUsTF4_91t8viU-2" value="PostgreSQL&lt;br&gt;&lt;pre style=&quot;background-color:#2b2b2b;color:#a9b7c6;font-family:&#39;JetBrains Mono&#39;,monospace;font-size:10,5pt;&quot;&gt;smart_home&lt;/pre&gt;" style="shape=cylinder3;whiteSpace=wrap;html=1;boundedLbl=1;backgroundOutline=1;size=15;" parent="1" vertex="1">
          <mxGeometry x="375" y="330" width="90" height="90" as="geometry" />
        </mxCell>
        <mxCell id="spfA-gWwuyjOLuekBBk7-1" style="edgeStyle=orthogonalEdgeStyle;rounded=0;orthogonalLoop=1;jettySize=auto;html=1;" edge="1" parent="1" source="zA23MoTUsTF4_91t8viU-3" target="zA23MoTUsTF4_91t8viU-2">
          <mxGeometry relative="1" as="geometry" />
        </mxCell>
        <mxCell id="zA23MoTUsTF4_91t8viU-3" value="Smart Home&lt;br&gt;monolith" style="rounded=1;whiteSpace=wrap;html=1;" parent="1" vertex="1">
          <mxGeometry x="360" y="180" width="120" height="60" as="geometry" />
        </mxCell>
        <mxCell id="spfA-gWwuyjOLuekBBk7-5" style="edgeStyle=orthogonalEdgeStyle;rounded=0;orthogonalLoop=1;jettySize=auto;html=1;" edge="1" parent="1" source="spfA-gWwuyjOLuekBBk7-2" target="spfA-gWwuyjOLuekBBk7-3">
          <mxGeometry relative="1" as="geometry" />
        </mxCell>
        <mxCell id="spfA-gWwuyjOLuekBBk7-2" value="Actor" style="shape=umlActor;verticalLabelPosition=bottom;verticalAlign=top;html=1;outlineConnect=0;" vertex="1" parent="1">
          <mxGeometry x="70" y="180" width="30" height="60" as="geometry" />
        </mxCell>
        <mxCell id="spfA-gWwuyjOLuekBBk7-6" style="edgeStyle=orthogonalEdgeStyle;rounded=0;orthogonalLoop=1;jettySize=auto;html=1;entryX=0;entryY=0.5;entryDx=0;entryDy=0;" edge="1" parent="1" source="spfA-gWwuyjOLuekBBk7-3" target="zA23MoTUsTF4_91t8viU-3">
          <mxGeometry relative="1" as="geometry" />
        </mxCell>
        <mxCell id="spfA-gWwuyjOLuekBBk7-3" value="" style="verticalLabelPosition=bottom;aspect=fixed;html=1;shape=mxgraph.salesforce.web;" vertex="1" parent="1">
          <mxGeometry x="190" y="178.15000000000003" width="80.63" height="63.7" as="geometry" />
        </mxCell>
        <mxCell id="spfA-gWwuyjOLuekBBk7-11" style="rounded=0;orthogonalLoop=1;jettySize=auto;html=1;" edge="1" parent="1" source="spfA-gWwuyjOLuekBBk7-7" target="zA23MoTUsTF4_91t8viU-3">
          <mxGeometry relative="1" as="geometry" />
        </mxCell>
        <mxCell id="spfA-gWwuyjOLuekBBk7-7" value="Sensor" style="sketch=0;outlineConnect=0;fontColor=#232F3E;gradientColor=none;strokeColor=#232F3E;fillColor=#ffffff;dashed=0;verticalLabelPosition=bottom;verticalAlign=top;align=center;html=1;fontSize=12;fontStyle=0;aspect=fixed;shape=mxgraph.aws4.resourceIcon;resIcon=mxgraph.aws4.sensor;fontFamily=Helvetica;" vertex="1" parent="1">
          <mxGeometry x="600" y="80" width="60" height="60" as="geometry" />
        </mxCell>
        <mxCell id="spfA-gWwuyjOLuekBBk7-12" style="edgeStyle=orthogonalEdgeStyle;rounded=0;orthogonalLoop=1;jettySize=auto;html=1;" edge="1" parent="1" source="spfA-gWwuyjOLuekBBk7-8" target="zA23MoTUsTF4_91t8viU-3">
          <mxGeometry relative="1" as="geometry" />
        </mxCell>
        <mxCell id="spfA-gWwuyjOLuekBBk7-8" value="Sensor" style="sketch=0;outlineConnect=0;fontColor=#232F3E;gradientColor=none;strokeColor=#232F3E;fillColor=#ffffff;dashed=0;verticalLabelPosition=bottom;verticalAlign=top;align=center;html=1;fontSize=12;fontStyle=0;aspect=fixed;shape=mxgraph.aws4.resourceIcon;resIcon=mxgraph.aws4.sensor;fontFamily=Helvetica;" vertex="1" parent="1">
          <mxGeometry x="600" y="180" width="60" height="60" as="geometry" />
        </mxCell>
        <mxCell id="spfA-gWwuyjOLuekBBk7-13" style="rounded=0;orthogonalLoop=1;jettySize=auto;html=1;entryX=1;entryY=1;entryDx=0;entryDy=0;" edge="1" parent="1" source="spfA-gWwuyjOLuekBBk7-9" target="zA23MoTUsTF4_91t8viU-3">
          <mxGeometry relative="1" as="geometry" />
        </mxCell>
        <mxCell id="spfA-gWwuyjOLuekBBk7-9" value="Sensor" style="sketch=0;outlineConnect=0;fontColor=#232F3E;gradientColor=none;strokeColor=#232F3E;fillColor=#ffffff;dashed=0;verticalLabelPosition=bottom;verticalAlign=top;align=center;html=1;fontSize=12;fontStyle=0;aspect=fixed;shape=mxgraph.aws4.resourceIcon;resIcon=mxgraph.aws4.sensor;fontFamily=Helvetica;" vertex="1" parent="1">
          <mxGeometry x="600" y="330" width="60" height="60" as="geometry" />
        </mxCell>
        <mxCell id="spfA-gWwuyjOLuekBBk7-10" value="..." style="text;html=1;align=center;verticalAlign=middle;whiteSpace=wrap;rounded=0;rotation=90;fontSize=36;" vertex="1" parent="1">
          <mxGeometry x="611" y="283" width="60" height="30" as="geometry" />
        </mxCell>
      </root>
    </mxGraphModel>
  </diagram>
</mxfile>
